<svg width="209" height="54" viewBox="0 0 209 54" fill="none" xmlns="http://www.w3.org/2000/svg">
<g clip-path="url(#clip0_126_33)">
<path d="M10.4648 34.0994L7.85624 38.5836L5.25049 34.1078L7.85624 29.6292L10.4648 34.0994Z" fill="#00AEEF" stroke="white" stroke-width="0.25" stroke-miterlimit="10"/>
<path d="M13.0651 38.5807L10.4566 43.0566L7.85645 38.5836L10.465 34.0993L13.0651 38.5807Z" fill="#00AEEF" stroke="white" stroke-width="0.25" stroke-miterlimit="10"/>
<path d="M15.6709 43.0566L13.0651 47.5324L10.4565 43.0566L13.0651 38.5807L15.6709 43.0566Z" fill="#00AEEF" stroke="white" stroke-width="0.25" stroke-miterlimit="10"/>
<path d="M18.2737 38.5836L20.8795 43.0566L18.2737 47.5324L15.668 52.0139L15.0362 53.1062H11.0967L10.4649 52.0139L9.82467 53.1062H5.88516L5.25057 52.0083L2.65043 47.5324L0.0390625 43.0566L2.65043 38.5836L5.25057 34.1078L7.85632 38.5836L10.4565 43.0566L13.065 47.5324L15.6708 43.0566L13.065 38.5808L10.4649 34.0993L7.85632 29.6291L5.25057 25.1477L2.65043 20.6747L0.0390625 16.1988L2.65043 11.7174L3.16709 10.8329H7.33966L7.85632 11.7174L8.37298 10.8329H12.5512L13.065 11.7174L13.5845 10.8329H17.7571L18.2737 11.7174L20.8795 16.1988L18.2737 20.6775L15.668 25.1533L13.065 29.6291L15.668 34.0993L18.2737 38.5836Z" fill="white" stroke="#00AEEF" stroke-width="0.25" stroke-miterlimit="10"/>
<path d="M10.7711 0.036438C9.77142 0.036438 8.79423 0.332865 7.96306 0.888235C7.13189 1.4436 6.48408 2.23297 6.10153 3.15652C5.71899 4.08006 5.6189 5.09631 5.81392 6.07674C6.00894 7.05717 6.49031 7.95775 7.19716 8.6646C7.90401 9.37146 8.80459 9.85283 9.78502 10.0478C10.7655 10.2429 11.7817 10.1428 12.7052 9.76023C13.6288 9.37768 14.4182 8.72987 14.9735 7.8987C15.5289 7.06753 15.8253 6.09034 15.8253 5.0907C15.8253 3.75023 15.2928 2.46466 14.345 1.5168C13.3971 0.568939 12.1115 0.036438 10.7711 0.036438ZM14.2613 6.15771C14.2326 6.26625 14.1979 6.37311 14.1574 6.47781C13.8764 7.21526 13.3628 7.84115 12.6945 8.26085C12.6632 8.28051 12.6372 8.30749 12.6187 8.33947V8.92071C12.6187 8.99518 12.5891 9.0666 12.5364 9.11926C12.4838 9.17192 12.4124 9.2015 12.3379 9.2015H9.26601C9.2225 9.20187 9.17934 9.19367 9.139 9.17736C9.09866 9.16105 9.06193 9.13695 9.0309 9.10644C8.99987 9.07594 8.97515 9.03962 8.95816 8.99956C8.94117 8.9595 8.93224 8.91649 8.93187 8.87297V8.33947C8.9153 8.307 8.89002 8.27978 8.85886 8.26085C8.19076 7.84141 7.67651 7.21682 7.39313 6.48062C7.34539 6.358 7.30599 6.23229 7.2752 6.10436C7.11739 5.63381 7.0572 5.13603 7.0983 4.64143C7.14044 4.11803 7.29366 3.60961 7.54773 3.15007C7.8018 2.69053 8.15089 2.29042 8.57174 1.97639C8.9926 1.66237 9.47554 1.44164 9.9884 1.32893C10.5013 1.21621 11.0323 1.2141 11.546 1.32272C12.0597 1.43134 12.5444 1.64821 12.9678 1.95887C13.3911 2.26953 13.7434 2.66684 14.0011 3.12434C14.2588 3.58184 14.4161 4.08902 14.4624 4.61207C14.5087 5.13512 14.4431 5.66204 14.2697 6.15771H14.2613Z" fill="white" stroke="white" stroke-width="0.25" stroke-miterlimit="10"/>
<path d="M14.4665 4.93626C14.4667 5.35199 14.3974 5.76483 14.2615 6.15771C14.2328 6.26624 14.1981 6.37311 14.1576 6.47781C13.8765 7.21526 13.363 7.84115 12.6947 8.26084C12.6634 8.2805 12.6374 8.30749 12.6189 8.33946V8.9207C12.6189 8.99518 12.5893 9.0666 12.5366 9.11926C12.4839 9.17191 12.4125 9.2015 12.3381 9.2015H9.26619C9.22268 9.20187 9.17952 9.19366 9.13918 9.17735C9.09884 9.16104 9.0621 9.13695 9.03108 9.10644C9.00005 9.07593 8.97533 9.03961 8.95834 8.99955C8.94135 8.9595 8.93242 8.91648 8.93205 8.87297V8.33946C8.91547 8.30699 8.8902 8.27977 8.85904 8.26084C8.19094 7.8414 7.67669 7.21682 7.39331 6.48062C7.34557 6.358 7.30617 6.23229 7.27537 6.10436C7.11757 5.63381 7.05738 5.13603 7.09847 4.64143C7.18052 3.69598 7.62318 2.81833 8.33471 2.19037C9.04625 1.5624 9.9721 1.23226 10.9204 1.26836C11.8687 1.30446 12.7668 1.70403 13.4286 2.38427C14.0903 3.06451 14.465 3.97327 14.4749 4.92222L14.4665 4.93626Z" fill="#00AEEF"/>
</g>
<path d="M29.5203 6.82097C29.0261 6.35828 28.9025 5.80306 28.9025 5.38664C28.9025 4.46126 29.6593 3.613 30.8022 3.613C31.7598 3.613 32.5321 4.2145 32.5321 5.20156H32.6865V3.31997H32.0687C31.6517 3.22743 31.1575 3.15031 30.7405 3.15031C28.9798 3.15031 28.0376 4.46126 28.0376 5.75679C28.0376 6.35828 28.2384 7.09858 28.8716 7.66923L31.8216 10.4145C32.2077 10.7847 32.4394 11.2473 32.4394 11.8643C32.4394 13.0827 31.4973 13.8538 30.3698 13.9309C28.9952 13.9926 27.9758 12.9901 28.1303 11.3862H28.0067C27.7596 12.0802 27.7133 13.0673 27.8214 13.5454C28.4237 14.1777 29.6748 14.3936 30.4316 14.3936C32.2077 14.3936 33.3352 13.2061 33.3352 11.5095C33.3352 10.8772 33.1653 10.1986 32.5475 9.62794L29.5203 6.82097Z" fill="white"/>
<path d="M45.0518 9.67421C44.6966 12.8205 42.8432 13.9155 40.65 13.9309C38.0553 13.8538 36.2946 11.8334 36.2946 8.73341C36.2946 5.66425 38.0244 3.613 40.7273 3.613C42.5961 3.62843 44.1097 4.58465 44.573 6.37371H44.6966L44.3877 4.19907C43.4919 3.613 42.2563 3.16574 40.7427 3.16574C37.3448 3.16574 35.1362 5.41748 35.1362 8.76426C35.1362 12.1727 37.4221 14.3782 40.65 14.3936C42.7814 14.3936 44.1715 13.422 44.9901 12.0956L45.1754 9.67421H45.0518Z" fill="white"/>
<path d="M57.574 14.1623L57.5586 14.0081H57.3732C56.8327 14.0081 56.3848 13.5762 56.3848 13.0518V4.49211C56.3848 3.95231 56.8327 3.52046 57.3732 3.52046H57.5586L57.574 3.36624H54.1916V3.52046H54.3924C54.9175 3.52046 55.3499 3.95231 55.3808 4.47669V8.59461H49.0484V4.49211C49.0639 3.95231 49.5118 3.52046 50.0369 3.52046H50.2377V3.36624H46.8707V3.52046H47.056C47.5966 3.52046 48.0291 3.95231 48.0445 4.49211V13.0518C48.0445 13.5762 47.5966 14.0235 47.056 14.0235H46.8707L46.8553 14.1777H50.2377V14.0235H50.0369C49.4963 14.0235 49.0639 13.5762 49.0484 13.0518V9.05729H55.3808V13.0518C55.3654 13.5916 54.9175 14.0235 54.3924 14.0235H54.1916V14.1777L57.574 14.1623Z" fill="white"/>
<path d="M64.8323 3.15031C61.5425 3.15031 59.2875 5.40206 59.2875 8.76426C59.2875 12.1419 61.5425 14.3782 64.8323 14.3782C68.122 14.3782 70.377 12.1419 70.377 8.76426C70.377 5.40206 68.122 3.15031 64.8323 3.15031ZM64.8323 13.9309C62.2066 13.9309 60.4613 11.8643 60.4613 8.77968C60.4613 5.67967 62.2066 3.613 64.8323 3.613C67.4579 3.613 69.2032 5.67967 69.2032 8.77968C69.2032 11.8643 67.4579 13.9309 64.8323 13.9309Z" fill="white"/>
<path d="M77.7734 3.15031C74.4836 3.15031 72.2287 5.40206 72.2287 8.76426C72.2287 12.1419 74.4836 14.3782 77.7734 14.3782C81.0631 14.3782 83.3181 12.1419 83.3181 8.76426C83.3181 5.40206 81.0631 3.15031 77.7734 3.15031ZM77.7734 13.9309C75.1477 13.9309 73.4025 11.8643 73.4025 8.77968C73.4025 5.67967 75.1477 3.613 77.7734 3.613C80.399 3.613 82.1443 5.67967 82.1443 8.77968C82.1443 11.8643 80.399 13.9309 77.7734 13.9309Z" fill="white"/>
<path d="M91.8492 11.6792C91.3704 12.8513 90.7526 13.6996 89.1155 13.6996H86.8914V4.49211C86.9068 3.96773 87.3393 3.53589 87.8799 3.53589H88.0806V3.38166H84.7137V3.53589H84.899C85.4396 3.53589 85.8875 3.96773 85.8875 4.49211V13.0518C85.8875 13.5762 85.4396 14.0235 84.899 14.0235H84.7137V14.1777H91.1078L92.0036 11.6792H91.8492Z" fill="white"/>
<path d="M102.947 3.15031C99.6569 3.15031 97.402 5.40206 97.402 8.76426C97.402 12.1419 99.6569 14.3782 102.947 14.3782C106.236 14.3782 108.491 12.1419 108.491 8.76426C108.491 5.40206 106.236 3.15031 102.947 3.15031ZM102.947 13.9309C100.321 13.9309 98.5758 11.8643 98.5758 8.77968C98.5758 5.67967 100.321 3.613 102.947 3.613C105.572 3.613 107.318 5.67967 107.318 8.77968C107.318 11.8643 105.572 13.9309 102.947 13.9309Z" fill="white"/>
<path d="M116.235 3.08862C115.957 3.21201 115.061 3.36624 114.397 3.36624H109.887V3.52046H110.088C110.597 3.52046 111.061 3.92146 111.061 4.41499V13.0518C111.061 13.5762 110.613 14.0235 110.072 14.0235H109.887V14.1777H113.254V14.0235H113.053C112.513 14.0235 112.08 13.5762 112.065 13.0518V9.07272H114.69C115.107 9.08814 115.432 9.42744 115.432 9.84386V10.0598H115.586V7.62296H115.432V7.85431C115.432 8.27073 115.092 8.61003 114.675 8.61003H112.065V3.84435H115.339C115.756 3.85977 116.08 4.18365 116.08 4.60007V4.83141H116.235V3.08862Z" fill="white"/>
<path d="M37.7215 28.3102C37.3663 31.4565 35.5129 32.5515 33.3198 32.567C30.725 32.4899 28.9643 30.4695 28.9643 27.3694C28.9643 24.3003 30.6941 22.249 33.397 22.249C35.2658 22.2645 36.7794 23.2207 37.2428 25.0097H37.3663L37.0574 22.8351C36.1616 22.249 34.926 21.8018 33.4124 21.8018C30.0146 21.8018 27.8059 24.0535 27.8059 27.4003C27.8059 30.8088 30.0918 33.0142 33.3198 33.0297C35.4512 33.0297 36.8412 32.058 37.6598 30.7316L37.8451 28.3102H37.7215Z" fill="white"/>
<path d="M50.2437 32.7983L50.2283 32.6441H50.0429C49.5024 32.6441 49.0545 32.2122 49.0545 31.6879V23.1281C49.0545 22.5883 49.5024 22.1565 50.0429 22.1565H50.2283L50.2437 22.0023H46.8613V22.1565H47.0621C47.5872 22.1565 48.0197 22.5883 48.0506 23.1127V27.2306H41.7182V23.1281C41.7336 22.5883 42.1815 22.1565 42.7066 22.1565H42.9074V22.0023H39.5404V22.1565H39.7258C40.2663 22.1565 40.6988 22.5883 40.7142 23.1281V31.6879C40.7142 32.2122 40.2663 32.6595 39.7258 32.6595H39.5404L39.525 32.8137H42.9074V32.6595H42.7066C42.1661 32.6595 41.7336 32.2122 41.7182 31.6879V27.6933H48.0506V31.6879C48.0351 32.2277 47.5872 32.6595 47.0621 32.6595H46.8613V32.8137L50.2437 32.7983Z" fill="white"/>
<path d="M52.1045 22.0023V22.1565H52.2898C52.8304 22.1565 53.2783 22.5883 53.2783 23.1281V31.6879C53.2628 32.2277 52.8304 32.6595 52.2898 32.6595H52.1045V32.8137H55.4715V32.6595H55.2707C54.7301 32.6595 54.2976 32.2122 54.2822 31.6879V22.4958C54.483 22.4958 55.4251 22.465 56.2128 22.4958C57.3557 22.5575 58.0816 23.452 58.128 24.8555C58.128 25.1948 58.0971 25.565 58.0199 25.7809C57.5874 27.1689 56.4136 27.354 55.6105 27.3849C55.1471 27.3849 54.7919 27.3849 54.7919 27.3849V27.5237C55.3633 27.5237 55.8112 28.0635 56.2128 28.5724C56.3364 28.7112 58.0816 31.2406 58.2515 31.4565C58.7303 32.0272 59.5026 32.7983 60.9389 32.7983H61.7884V32.6441C60.8926 32.6441 60.3211 32.166 59.6879 31.4874C59.101 30.8396 57.7573 28.9272 57.7573 28.9272C57.4638 28.5107 56.9851 28.0018 56.6607 27.8476C58.1434 27.8476 59.2863 26.3978 59.2863 24.9018C59.2863 23.1127 58.128 22.0023 56.2591 22.0023H52.1045Z" fill="white"/>
<path d="M65.4563 32.6441H65.2555C64.715 32.6441 64.2825 32.2122 64.2671 31.6879V23.1281C64.2825 22.5883 64.7304 22.1565 65.2555 22.1565H65.4563V22.0023H62.0893V22.1565H62.2747C62.8152 22.1565 63.2631 22.5883 63.2631 23.1281V31.6879C63.2631 32.2122 62.8152 32.6441 62.2747 32.6441H62.0893V32.7983H65.4563V32.6441Z" fill="white"/>
<path d="M69.0224 25.457C68.5282 24.9943 68.4046 24.4391 68.4046 24.0227C68.4046 23.0973 69.1614 22.249 70.3043 22.249C71.2619 22.249 72.0341 22.8505 72.0341 23.8376H72.1886V21.956H71.5708C71.1538 21.8635 70.6596 21.7863 70.2425 21.7863C68.4818 21.7863 67.5397 23.0973 67.5397 24.3928C67.5397 24.9943 67.7405 25.7346 68.3737 26.3053L71.3237 29.0505C71.7098 29.4207 71.9415 29.8834 71.9415 30.5003C71.9415 31.7187 70.9993 32.4899 69.8719 32.567C68.4973 32.6287 67.4779 31.6262 67.6324 30.0222H67.5088C67.2617 30.7162 67.2153 31.7033 67.3235 32.1814C67.9258 32.8137 69.1768 33.0297 69.9336 33.0297C71.7098 33.0297 72.8373 31.8421 72.8373 30.1456C72.8373 29.5132 72.6674 28.8346 72.0496 28.264L69.0224 25.457Z" fill="white"/>
<path d="M75.8739 21.9868C75.2098 21.9868 74.2985 21.8326 74.0205 21.7092V23.6525H74.175V23.3749C74.175 22.8814 74.5611 22.4804 75.0553 22.4495H77.9744V31.7033C77.9589 32.2277 77.5265 32.6595 76.9859 32.6595H76.8006L76.7851 32.8137H80.1676V32.6595H79.9822C79.4417 32.6595 79.0092 32.2277 78.9938 31.6879V22.4495H81.9128C82.4071 22.4804 82.7932 22.8814 82.7932 23.3749V23.6525H82.9476V21.7092C82.6542 21.8326 81.7584 21.9868 81.0943 21.9868H75.8739Z" fill="white"/>
<path d="M87.5527 32.6441H87.352C86.8114 32.6441 86.3789 32.2122 86.3635 31.6879V23.1281C86.3789 22.5883 86.8268 22.1565 87.352 22.1565H87.5527V22.0023H84.1858V22.1565H84.3711C84.9117 22.1565 85.3596 22.5883 85.3596 23.1281V31.6879C85.3596 32.2122 84.9117 32.6441 84.3711 32.6441H84.1858V32.7983H87.5527V32.6441Z" fill="white"/>
<path d="M94.0225 21.7863H93.8835C93.8835 22.1257 93.312 23.3749 93.312 23.3749L89.806 31.6879C89.4971 32.3665 88.9257 32.6441 88.4469 32.6441H88.3079V32.7983H91.4277V32.6595H91.2887C90.8871 32.6595 90.4856 32.3048 90.7018 31.6879L91.7366 29.0505H95.8913L96.8798 31.6879C97.1114 32.3048 96.6944 32.6595 96.2929 32.6595H96.1539V32.7983H99.629V32.6441H99.5054C99.0266 32.6441 98.4551 32.3665 98.1462 31.6879L94.0225 21.7863ZM91.922 28.5879L93.8526 23.6525L95.7214 28.5879H91.922Z" fill="white"/>
<path d="M108.586 22.0023V22.1565H108.864C109.389 22.1565 109.806 22.5883 109.821 23.0973V30.7471L101.404 21.7863H101.265C101.265 21.7863 101.404 22.65 101.404 23.6988V31.7187C101.388 32.2431 100.971 32.6595 100.446 32.6595H100.168L100.153 32.8137H103.334V32.6595H103.056C102.531 32.6595 102.114 32.2431 102.099 31.7341V24.0535L110.532 33.0297H110.671C110.671 33.0297 110.516 32.0426 110.516 31.0555V23.0819C110.547 22.5729 110.964 22.1565 111.474 22.1565H111.767V22.0023H108.586Z" fill="white"/>
<path d="M124.383 30.3152C123.904 31.4874 123.286 32.3356 121.649 32.3356H119.425V23.1281C119.441 22.6038 119.873 22.1719 120.414 22.1719H120.614V22.0177H117.247V22.1719H117.433C117.973 22.1719 118.421 22.6038 118.421 23.1281V31.6879C118.421 32.2122 117.973 32.6595 117.433 32.6595H117.247V32.8137H123.642L124.537 30.3152H124.383Z" fill="white"/>
<path d="M132.984 30.3152H132.829C132.351 31.4874 131.733 32.3356 130.096 32.3356H127.872V27.7087H130.497C130.914 27.7242 131.239 28.0635 131.239 28.4799V28.6958H131.393V26.259H131.239V26.4903C131.239 26.9068 130.899 27.2461 130.482 27.2461H127.872V22.4804H131.022C131.517 22.5112 131.887 22.9122 131.887 23.4058V23.6679L132.042 23.6834V21.7247C131.764 21.848 130.868 22.0023 130.204 22.0023H125.694V22.1565H125.895C126.404 22.1565 126.821 22.5575 126.868 23.051V31.6879C126.868 32.2122 126.42 32.6595 125.879 32.6595H125.694V32.8137H132.088L132.984 30.3152Z" fill="white"/>
<path d="M139.226 21.7863H139.087C139.087 22.1257 138.515 23.3749 138.515 23.3749L135.009 31.6879C134.701 32.3665 134.129 32.6441 133.65 32.6441H133.511V32.7983H136.631V32.6595H136.492C136.091 32.6595 135.689 32.3048 135.905 31.6879L136.94 29.0505H141.095L142.083 31.6879C142.315 32.3048 141.898 32.6595 141.496 32.6595H141.357V32.7983H144.832V32.6441H144.709C144.23 32.6441 143.659 32.3665 143.35 31.6879L139.226 21.7863ZM137.125 28.5879L139.056 23.6525L140.925 28.5879H137.125Z" fill="white"/>
<path d="M145.603 22.0177V22.1565H145.804C146.314 22.1565 146.777 22.5421 146.777 23.051V31.6879C146.777 32.2277 146.329 32.6595 145.789 32.6595H145.603L145.588 32.8137H150.824C154.129 32.8137 156.368 30.6545 156.368 27.4157C156.368 24.1769 154.129 22.0177 150.824 22.0177H145.603ZM147.781 22.4804H150.824C153.449 22.4804 155.21 24.4545 155.21 27.4157C155.21 30.3615 153.465 32.3356 150.824 32.3356H147.781V22.4804Z" fill="white"/>
<path d="M165.05 30.3152H164.896C164.417 31.4874 163.799 32.3356 162.162 32.3356H159.938V27.7087H162.563C162.98 27.7242 163.305 28.0635 163.305 28.4799V28.6958H163.459V26.259H163.305V26.4903C163.305 26.9068 162.965 27.2461 162.548 27.2461H159.938V22.4804H163.089C163.583 22.5112 163.953 22.9122 163.953 23.4058V23.6679L164.108 23.6834V21.7247C163.83 21.848 162.934 22.0023 162.27 22.0023H157.76V22.1565H157.961C158.471 22.1565 158.888 22.5575 158.934 23.051V31.6879C158.934 32.2122 158.486 32.6595 157.945 32.6595H157.76V32.8137H164.154L165.05 30.3152Z" fill="white"/>
<path d="M166.523 22.0023V22.1565H166.709C167.249 22.1565 167.697 22.5883 167.697 23.1281V31.6879C167.682 32.2277 167.249 32.6595 166.709 32.6595H166.523V32.8137H169.89V32.6595H169.689C169.149 32.6595 168.716 32.2122 168.701 31.6879V22.4958C168.902 22.4958 169.844 22.465 170.632 22.4958C171.775 22.5575 172.5 23.452 172.547 24.8555C172.547 25.1948 172.516 25.565 172.439 25.7809C172.006 27.1689 170.832 27.354 170.029 27.3849C169.566 27.3849 169.211 27.3849 169.211 27.3849V27.5237C169.782 27.5237 170.23 28.0635 170.632 28.5724C170.755 28.7112 172.5 31.2406 172.67 31.4565C173.149 32.0272 173.921 32.7983 175.358 32.7983H176.207V32.6441C175.311 32.6441 174.74 32.166 174.107 31.4874C173.52 30.8396 172.176 28.9272 172.176 28.9272C171.883 28.5107 171.404 28.0018 171.079 27.8476C172.562 27.8476 173.705 26.3978 173.705 24.9018C173.705 23.1127 172.547 22.0023 170.678 22.0023H166.523Z" fill="white"/>
<path d="M178.388 25.457C177.894 24.9943 177.771 24.4391 177.771 24.0227C177.771 23.0973 178.527 22.249 179.67 22.249C180.628 22.249 181.4 22.8505 181.4 23.8376H181.555V21.956H180.937C180.52 21.8635 180.026 21.7863 179.609 21.7863C177.848 21.7863 176.906 23.0973 176.906 24.3928C176.906 24.9943 177.106 25.7346 177.74 26.3053L180.69 29.0505C181.076 29.4207 181.307 29.8834 181.307 30.5003C181.307 31.7187 180.365 32.4899 179.238 32.567C177.863 32.6287 176.844 31.6262 176.998 30.0222H176.875C176.628 30.7162 176.581 31.7033 176.689 32.1814C177.292 32.8137 178.543 33.0297 179.3 33.0297C181.076 33.0297 182.203 31.8421 182.203 30.1456C182.203 29.5132 182.033 28.8346 181.416 28.264L178.388 25.457Z" fill="white"/>
<path d="M194.708 32.7983L194.692 32.6441H194.507C193.966 32.6441 193.518 32.2122 193.518 31.6879V23.1281C193.518 22.5883 193.966 22.1565 194.507 22.1565H194.692L194.708 22.0023H191.325V22.1565H191.526C192.051 22.1565 192.484 22.5883 192.514 23.1127V27.2306H186.182V23.1281C186.197 22.5883 186.645 22.1565 187.171 22.1565H187.371V22.0023H184.004V22.1565H184.19C184.73 22.1565 185.163 22.5883 185.178 23.1281V31.6879C185.178 32.2122 184.73 32.6595 184.19 32.6595H184.004L183.989 32.8137H187.371V32.6595H187.171C186.63 32.6595 186.197 32.2122 186.182 31.6879V27.6933H192.514V31.6879C192.499 32.2277 192.051 32.6595 191.526 32.6595H191.325V32.8137L194.708 32.7983Z" fill="white"/>
<path d="M199.935 32.6441H199.735C199.194 32.6441 198.762 32.2122 198.746 31.6879V23.1281C198.762 22.5883 199.209 22.1565 199.735 22.1565H199.935V22.0023H196.568V22.1565H196.754C197.294 22.1565 197.742 22.5883 197.742 23.1281V31.6879C197.742 32.2122 197.294 32.6441 196.754 32.6441H196.568V32.7983H199.935V32.6441Z" fill="white"/>
<path d="M201.787 22.0023V22.1565H201.988C202.497 22.1565 202.914 22.5575 202.961 23.051V31.6879C202.961 32.2122 202.513 32.6595 201.972 32.6595H201.787V32.8137H205.154V32.6595H204.969C204.428 32.6595 203.98 32.2122 203.98 31.6879V22.4804H205.756C207.069 22.4804 207.795 23.4212 207.841 24.8401C207.841 25.1794 207.811 25.5495 207.733 25.7655C207.038 27.9709 204.505 27.4311 204.505 27.4311V27.5699C206.436 28.5879 209 27.3386 209 24.9943C209 23.1436 207.78 22.0177 205.803 22.0177L201.787 22.0023Z" fill="white"/>
<path d="M36.7949 45.6662V45.5119H33.7059V45.6662H33.953C34.4318 45.6662 34.7407 45.9438 34.9415 46.3602C35.3739 47.2239 35.343 48.3035 34.9415 49.2289C33.6287 48.1493 32.7792 47.3473 32.1305 46.7766C30.5397 45.3423 29.6902 44.3706 29.6902 43.0751C29.6902 41.8104 30.5397 40.8851 31.7289 40.8851C33.0418 40.8851 33.9221 41.795 33.9221 43.2756H34.0766L34.3391 41.5174C33.7986 40.8542 32.7483 40.4378 31.7289 40.4224C29.8292 40.4224 28.6245 41.5637 28.6245 43.0751C28.6245 43.8617 28.8253 44.5095 29.196 45.1264C28.1303 45.6816 27.3271 46.5761 27.3271 47.9796C27.3271 50.2776 29.0415 51.604 32.0687 51.604C33.2734 51.604 34.231 51.1876 34.9106 50.5244C36.2234 51.5577 37.6443 51.4498 38.2467 51.4498V51.2955C37.2582 51.2184 36.3624 50.4473 35.5284 49.7224C36.0689 48.8125 36.2388 47.6249 35.9917 46.3602C35.9145 45.9438 36.1153 45.6662 36.5632 45.6662H36.7949ZM32.0687 51.1259C29.7674 51.1259 28.4546 49.8458 28.4546 47.9796C28.4546 47.0388 28.7481 46.1597 29.4585 45.5119C29.9219 46.1443 30.586 46.7766 31.42 47.5323C32.2386 48.2727 33.0881 49.0284 34.3855 50.0926C33.8449 50.7095 33.0572 51.1259 32.0687 51.1259Z" fill="white"/>
<path d="M48.942 48.9513H48.7876C48.3088 50.1234 47.691 50.9717 46.0538 50.9717H43.8298V46.3448H46.4554C46.8724 46.3602 47.1967 46.6995 47.1967 47.1159V47.3318H47.3512V44.895H47.1967V45.1264C47.1967 45.5428 46.857 45.8821 46.4399 45.8821H43.8298V41.1164H46.9805C47.4747 41.1473 47.8454 41.5483 47.8454 42.0418V42.304L47.9999 42.3194V40.3607C47.7219 40.4841 46.8261 40.6383 46.1619 40.6383H41.652V40.7925H41.8528C42.3625 40.7925 42.7795 41.1935 42.8258 41.6871V50.3239C42.8258 50.8483 42.3779 51.2955 41.8374 51.2955H41.652V51.4498H48.0462L48.942 48.9513Z" fill="white"/>
<path d="M58.601 40.6383V40.7925H58.879C59.4041 40.7925 59.8211 41.2244 59.8366 41.7333V49.3831L51.4191 40.4224H51.2801C51.2801 40.4224 51.4191 41.2861 51.4191 42.3348V50.3547C51.4037 50.8791 50.9866 51.2955 50.4615 51.2955H50.1835L50.1681 51.4498H53.3497V51.2955H53.0717C52.5466 51.2955 52.1296 50.8791 52.1141 50.3702V42.6895L60.547 51.6657H60.686C60.686 51.6657 60.5316 50.6786 60.5316 49.6916V41.7179C60.5625 41.209 60.9795 40.7925 61.4892 40.7925H61.7826V40.6383H58.601Z" fill="white"/>
<path d="M64.6371 40.6229C63.973 40.6229 63.0618 40.4687 62.7838 40.3453V42.2886H62.9382V42.0109C62.9382 41.5174 63.3243 41.1164 63.8186 41.0856H66.7376V50.3393C66.7222 50.8637 66.2897 51.2955 65.7492 51.2955H65.5638L65.5484 51.4498H68.9308V51.2955H68.7455C68.2049 51.2955 67.7724 50.8637 67.757 50.3239V41.0856H70.6761C71.1703 41.1164 71.5564 41.5174 71.5564 42.0109V42.2886H71.7109V40.3453C71.4174 40.4687 70.5216 40.6229 69.8575 40.6229H64.6371Z" fill="white"/>
<path d="M72.949 40.6383V40.7925H73.1344C73.6749 40.7925 74.1228 41.2244 74.1228 41.7642V50.3239C74.1074 50.8637 73.6749 51.2955 73.1344 51.2955H72.949V51.4498H76.316V51.2955H76.1152C75.5746 51.2955 75.1422 50.8483 75.1267 50.3239V41.1318C75.3275 41.1318 76.2697 41.101 77.0574 41.1318C78.2003 41.1935 78.9262 42.0881 78.9725 43.4915C78.9725 43.8308 78.9416 44.201 78.8644 44.4169C78.4319 45.805 77.2581 45.9901 76.455 46.0209C75.9917 46.0209 75.6364 46.0209 75.6364 46.0209V46.1597C76.2079 46.1597 76.6558 46.6995 77.0574 47.2085C77.1809 47.3473 78.9262 49.8766 79.0961 50.0926C79.5749 50.6632 80.3471 51.4343 81.7835 51.4343H82.633V51.2801C81.7371 51.2801 81.1657 50.802 80.5324 50.1234C79.9455 49.4756 78.6018 47.5632 78.6018 47.5632C78.3084 47.1468 77.8296 46.6378 77.5053 46.4836C78.988 46.4836 80.1309 45.0338 80.1309 43.5378C80.1309 41.7488 78.9725 40.6383 77.1037 40.6383H72.949Z" fill="white"/>
<path d="M90.2239 48.9513H90.0694C89.5906 50.1234 88.9728 50.9717 87.3357 50.9717H85.1116V46.3448H87.7372C88.1543 46.3602 88.4786 46.6995 88.4786 47.1159V47.3318H88.633V44.895H88.4786V45.1264C88.4786 45.5428 88.1388 45.8821 87.7218 45.8821H85.1116V41.1164H88.2624C88.7566 41.1473 89.1273 41.5483 89.1273 42.0418V42.304L89.2817 42.3194V40.3607C89.0037 40.4841 88.1079 40.6383 87.4438 40.6383H82.9339V40.7925H83.1347C83.6444 40.7925 84.0614 41.1935 84.1077 41.6871V50.3239C84.1077 50.8483 83.6598 51.2955 83.1192 51.2955H82.9339V51.4498H89.3281L90.2239 48.9513Z" fill="white"/>
<path d="M91.697 40.6383V40.7925H91.8978C92.4075 40.7925 92.8245 41.1935 92.8709 41.6871V50.3239C92.8709 50.8483 92.423 51.2955 91.8824 51.2955H91.697V51.4498H95.064V51.2955H94.8787C94.3381 51.2955 93.8902 50.8483 93.8902 50.3239V41.1164H95.6664C96.9792 41.1164 97.7051 42.0572 97.7514 43.4761C97.7514 43.8154 97.7205 44.1856 97.6433 44.4015C96.9483 46.607 94.4153 46.0672 94.4153 46.0672V46.206C96.346 47.2239 98.9098 45.9746 98.9098 43.6303C98.9098 41.7796 97.6897 40.6537 95.7127 40.6537L91.697 40.6383Z" fill="white"/>
<path d="M100.536 40.6383V40.7925H100.721C101.262 40.7925 101.709 41.2244 101.709 41.7642V50.3239C101.694 50.8637 101.262 51.2955 100.721 51.2955H100.536V51.4498H103.903V51.2955H103.702C103.161 51.2955 102.729 50.8483 102.713 50.3239V41.1318C102.914 41.1318 103.856 41.101 104.644 41.1318C105.787 41.1935 106.513 42.0881 106.559 43.4915C106.559 43.8308 106.528 44.201 106.451 44.4169C106.019 45.805 104.845 45.9901 104.042 46.0209C103.578 46.0209 103.223 46.0209 103.223 46.0209V46.1597C103.794 46.1597 104.242 46.6995 104.644 47.2085C104.768 47.3473 106.513 49.8766 106.683 50.0926C107.161 50.6632 107.934 51.4343 109.37 51.4343H110.22V51.2801C109.324 51.2801 108.752 50.802 108.119 50.1234C107.532 49.4756 106.188 47.5632 106.188 47.5632C105.895 47.1468 105.416 46.6378 105.092 46.4836C106.575 46.4836 107.717 45.0338 107.717 43.5378C107.717 41.7488 106.559 40.6383 104.69 40.6383H100.536Z" fill="white"/>
<path d="M117.81 48.9513H117.656C117.177 50.1234 116.559 50.9717 114.922 50.9717H112.698V46.3448H115.324C115.741 46.3602 116.065 46.6995 116.065 47.1159V47.3318H116.22V44.895H116.065V45.1264C116.065 45.5428 115.725 45.8821 115.308 45.8821H112.698V41.1164H115.849C116.343 41.1473 116.714 41.5483 116.714 42.0418V42.304L116.868 42.3194V40.3607C116.59 40.4841 115.695 40.6383 115.03 40.6383H110.52V40.7925H110.721C111.231 40.7925 111.648 41.1935 111.694 41.6871V50.3239C111.694 50.8483 111.246 51.2955 110.706 51.2955H110.52V51.4498H116.915L117.81 48.9513Z" fill="white"/>
<path d="M127.469 40.6383V40.7925H127.747C128.273 40.7925 128.69 41.2244 128.705 41.7333V49.3831L120.288 40.4224H120.149C120.149 40.4224 120.288 41.2861 120.288 42.3348V50.3547C120.272 50.8791 119.855 51.2955 119.33 51.2955H119.052L119.037 51.4498H122.218V51.2955H121.94C121.415 51.2955 120.998 50.8791 120.983 50.3702V42.6895L129.415 51.6657H129.554C129.554 51.6657 129.4 50.6786 129.4 49.6916V41.7179C129.431 41.209 129.848 40.7925 130.358 40.7925H130.651V40.6383H127.469Z" fill="white"/>
<path d="M139.409 48.9513H139.255C138.776 50.1234 138.158 50.9717 136.521 50.9717H134.297V46.3448H136.923C137.34 46.3602 137.664 46.6995 137.664 47.1159V47.3318H137.818V44.895H137.664V45.1264C137.664 45.5428 137.324 45.8821 136.907 45.8821H134.297V41.1164H137.448C137.942 41.1473 138.313 41.5483 138.313 42.0418V42.304L138.467 42.3194V40.3607C138.189 40.4841 137.293 40.6383 136.629 40.6383H132.119V40.7925H132.32C132.83 40.7925 133.247 41.1935 133.293 41.6871V50.3239C133.293 50.8483 132.845 51.2955 132.305 51.2955H132.119V51.4498H138.513L139.409 48.9513Z" fill="white"/>
<path d="M148.601 40.6383V40.7925H148.848C149.281 40.7925 149.651 41.1164 149.667 41.5483V47.6249C149.667 49.7533 148.292 51.1722 146.223 51.1722C144.261 51.1722 142.948 49.6761 142.948 47.4244V41.5483C142.964 41.1164 143.319 40.7925 143.751 40.7925H144.014V40.6383H140.879V40.7925H141.126C141.574 40.7925 141.929 41.1164 141.944 41.5637V47.6557C141.944 50.0617 143.659 51.6657 146.223 51.6657C148.725 51.6657 150.393 50.0463 150.393 47.6249V41.5328C150.408 41.101 150.763 40.7925 151.196 40.7925H151.458V40.6383H148.601Z" fill="white"/>
<path d="M152.964 40.6383V40.7925H153.149C153.69 40.7925 154.138 41.2244 154.138 41.7642V50.3239C154.122 50.8637 153.69 51.2955 153.149 51.2955H152.964V51.4498H156.331V51.2955H156.13C155.589 51.2955 155.157 50.8483 155.141 50.3239V41.1318C155.342 41.1318 156.284 41.101 157.072 41.1318C158.215 41.1935 158.941 42.0881 158.987 43.4915C158.987 43.8308 158.956 44.201 158.879 44.4169C158.447 45.805 157.273 45.9901 156.47 46.0209C156.006 46.0209 155.651 46.0209 155.651 46.0209V46.1597C156.223 46.1597 156.671 46.6995 157.072 47.2085C157.196 47.3473 158.941 49.8766 159.111 50.0926C159.59 50.6632 160.362 51.4343 161.798 51.4343H162.648V51.2801C161.752 51.2801 161.18 50.802 160.547 50.1234C159.96 49.4756 158.617 47.5632 158.617 47.5632C158.323 47.1468 157.844 46.6378 157.52 46.4836C159.003 46.4836 160.146 45.0338 160.146 43.5378C160.146 41.7488 158.987 40.6383 157.118 40.6383H152.964Z" fill="white"/>
<path d="M164.829 44.093C164.335 43.6303 164.211 43.0751 164.211 42.6587C164.211 41.7333 164.968 40.8851 166.111 40.8851C167.068 40.8851 167.841 41.4866 167.841 42.4736H167.995V40.592H167.377C166.96 40.4995 166.466 40.4224 166.049 40.4224C164.288 40.4224 163.346 41.7333 163.346 43.0289C163.346 43.6303 163.547 44.3706 164.18 44.9413L167.13 47.6866C167.516 48.0567 167.748 48.5194 167.748 49.1363C167.748 50.3547 166.806 51.1259 165.678 51.203C164.304 51.2647 163.284 50.2622 163.439 48.6582H163.315C163.068 49.3523 163.022 50.3393 163.13 50.8174C163.732 51.4498 164.983 51.6657 165.74 51.6657C167.516 51.6657 168.644 50.4781 168.644 48.7816C168.644 48.1493 168.474 47.4707 167.856 46.9L164.829 44.093Z" fill="white"/>
<path d="M181.148 51.4343L181.133 51.2801H180.947C180.407 51.2801 179.959 50.8483 179.959 50.3239V41.7642C179.959 41.2244 180.407 40.7925 180.947 40.7925H181.133L181.148 40.6383H177.766V40.7925H177.966C178.492 40.7925 178.924 41.2244 178.955 41.7488V45.8667H172.623V41.7642C172.638 41.2244 173.086 40.7925 173.611 40.7925H173.812V40.6383H170.445V40.7925H170.63C171.171 40.7925 171.603 41.2244 171.619 41.7642V50.3239C171.619 50.8483 171.171 51.2955 170.63 51.2955H170.445L170.429 51.4498H173.812V51.2955H173.611C173.07 51.2955 172.638 50.8483 172.623 50.3239V46.3294H178.955V50.3239C178.939 50.8637 178.492 51.2955 177.966 51.2955H177.766V51.4498L181.148 51.4343Z" fill="white"/>
<path d="M186.376 51.2801H186.175C185.634 51.2801 185.202 50.8483 185.187 50.3239V41.7642C185.202 41.2244 185.65 40.7925 186.175 40.7925H186.376V40.6383H183.009V40.7925H183.194C183.735 40.7925 184.183 41.2244 184.183 41.7642V50.3239C184.183 50.8483 183.735 51.2801 183.194 51.2801H183.009V51.4343H186.376V51.2801Z" fill="white"/>
<path d="M188.228 40.6383V40.7925H188.428C188.938 40.7925 189.355 41.1935 189.401 41.6871V50.3239C189.401 50.8483 188.953 51.2955 188.413 51.2955H188.228V51.4498H191.594V51.2955H191.409C190.869 51.2955 190.421 50.8483 190.421 50.3239V41.1164H192.197C193.51 41.1164 194.236 42.0572 194.282 43.4761C194.282 43.8154 194.251 44.1856 194.174 44.4015C193.479 46.607 190.946 46.0672 190.946 46.0672V46.206C192.876 47.2239 195.44 45.9746 195.44 43.6303C195.44 41.7796 194.22 40.6537 192.243 40.6537L188.228 40.6383Z" fill="white"/>
<defs>
<clipPath id="clip0_126_33">
<rect width="20.9218" height="53.1399" fill="white"/>
</clipPath>
</defs>
</svg>
